# xmcd
#
# Track frame offsets:
#	150
#	19458
#	36499
#	50940
#	64064
#	85974
#	101669
#	120162
#	136619
#	160284
#	172496
#
# Disc length: 2451 seconds
#
# Revision: 2
# Processed by: cddbd v1.4PL0 Copyright (c) Steve Scherf et al.
# Submitted via: CDmax 1.8
#
DISCID=9d09910b
DTITLE=BILL JANOVITZ - Up here
DYEAR=2002
DGENRE=Blues
TTITLE0=Atlantic
TTITLE1=Best Kept Secret
TTITLE2=Up Here
TTITLE3=Half A Heart
TTITLE4=Your Stranger's Heart
TTITLE5=Goodnight Wherever You Are
TTITLE6=Minneapolis
TTITLE7=Like You Do
TTITLE8=Like Shadows
TTITLE9=Light In December
TTITLE10=Long Island
EXTD=
EXTT0=
EXTT1=
EXTT2=
EXTT3=
EXTT4=
EXTT5=
EXTT6=
EXTT7=
EXTT8=
EXTT9=
EXTT10=
PLAYORDER=
